<svg width="43" height="43" viewBox="0 0 43 43" fill="none" xmlns="http://www.w3.org/2000/svg">
<path d="M6.30479 0H1.26716C0.571684 0 0.0078125 0.563871 0.0078125 1.25943V6.38105C0.0078125 7.07661 0.5716 7.64048 1.26724 7.64048C1.9628 7.64048 2.52667 7.07661 2.52667 6.38105V2.51886H6.30488C7.00044 2.51886 7.56431 1.95499 7.56431 1.25943C7.56422 0.563871 7.00035 0 6.30479 0Z" fill="#F78CB6"/>
<path d="M41.7346 0H36.6969C36.0014 0 35.4375 0.563871 35.4375 1.25943C35.4375 1.95499 36.0013 2.51886 36.6969 2.51886H40.4751V6.38105C40.4751 7.07661 41.039 7.64048 41.7346 7.64048C42.4301 7.64048 42.994 7.07661 42.994 6.38105V1.25943C42.994 0.563871 42.4301 0 41.7346 0Z" fill="#F78CB6"/>
<path d="M6.30488 40.469H2.52667V36.6068C2.52667 35.9113 1.9628 35.3474 1.26724 35.3474C0.571684 35.3474 0.0078125 35.9113 0.0078125 36.6068V41.7285C0.0078125 42.424 0.5716 42.9879 1.26724 42.9879H6.30488C7.00044 42.9879 7.56431 42.424 7.56431 41.7285C7.56431 41.0329 7.00044 40.469 6.30488 40.469Z" fill="#F78CB6"/>
<path d="M41.7346 35.3474C41.039 35.3474 40.4751 35.9113 40.4751 36.6068V40.469H36.6969C36.0014 40.469 35.4375 41.0329 35.4375 41.7285C35.4375 42.424 36.0014 42.9879 36.6969 42.9879H41.7346C42.4301 42.9879 42.994 42.424 42.994 41.7285V36.6068C42.994 35.9113 42.4301 35.3474 41.7346 35.3474Z" fill="#F78CB6"/>
<path d="M39.6703 10.332L22.1299 0.169751C21.7395 -0.0565024 21.2577 -0.0565024 20.8672 0.169751L3.31969 10.3319C2.93286 10.5561 2.69141 10.9734 2.69141 11.4209C2.69141 11.4234 2.69166 11.4259 2.69166 11.4284V31.5782C2.69166 32.03 2.93714 32.4528 3.33246 32.6753L20.8673 42.8304C21.0562 42.9398 21.2809 43 21.4987 43C21.7261 43 21.9482 42.9357 22.1301 42.8304L39.6578 32.6752C39.6608 32.6735 39.6636 32.6719 39.6665 32.6702C40.0728 32.3771 40.2917 32.1308 40.2979 31.5934C40.2979 31.5884 40.2984 31.5834 40.2984 31.5784V11.4285C40.2984 11.426 40.2986 11.4235 40.2986 11.4211C40.2986 10.9732 40.057 10.5558 39.6703 10.332ZM20.2392 39.5555L6.48036 31.5839L17.0875 25.501C17.6909 25.155 17.8996 24.3854 17.5535 23.782C17.2075 23.1786 16.4379 22.9701 15.8345 23.3161L5.21027 29.4043V13.5978L20.2392 22.2289V39.5555ZM21.4986 20.0476L6.47851 11.4173L21.4986 2.71498L36.5187 11.4173L21.4986 20.0476ZM37.7877 29.4043L27.1628 23.316C26.5594 22.9701 25.7898 23.1785 25.4438 23.782C25.0977 24.3854 25.3063 25.1549 25.9097 25.5009L36.5169 31.5838L22.758 39.5553V22.2289L37.7877 13.5978V29.4043H37.7877Z" fill="#F78CB6"/>
</svg>
