<svg width="39" height="28" viewBox="0 0 39 28" fill="none" xmlns="http://www.w3.org/2000/svg">
<rect x="11.75" y="0.75" width="26.5" height="26.5" rx="1.25" fill="#FFC1DA" fill-opacity="0.28" stroke="white" stroke-width="1.5"/>
<path d="M1 12.4419C0.447715 12.4419 0 12.8896 0 13.4419C0 13.9941 0.447715 14.4419 1 14.4419V12.4419ZM26.6279 13.4419L27.3143 14.1691C27.5211 13.974 27.635 13.7 27.6276 13.4157C27.6201 13.1314 27.492 12.8638 27.2753 12.6797L26.6279 13.4419ZM19.5346 18.7611C19.1329 19.1402 19.1146 19.7731 19.4937 20.1747C19.8727 20.5764 20.5056 20.5947 20.9073 20.2156L19.5346 18.7611ZM20.8683 7.23782C20.4474 6.88029 19.8163 6.93169 19.4588 7.35263C19.1012 7.77357 19.1526 8.40465 19.5736 8.76218L20.8683 7.23782ZM1 14.4419H26.6279V12.4419H1V14.4419ZM25.9416 12.7146L19.5346 18.7611L20.9073 20.2156L27.3143 14.1691L25.9416 12.7146ZM27.2753 12.6797L20.8683 7.23782L19.5736 8.76218L25.9805 14.204L27.2753 12.6797Z" fill="white"/>
</svg>
